<mxfile host="Electron" modified="2024-06-01T08:24:24.703Z" agent="Mozilla/5.0 (Windows NT 10.0; Win64; x64) AppleWebKit/537.36 (KHTML, like Gecko) draw.io/24.4.13 Chrome/124.0.6367.207 Electron/30.0.6 Safari/537.36" version="24.4.13" etag="PG3WpiNua3OZ42DTeBwQ" type="device">
  <diagram id="4hGNNaWelnX5ogM7S-4X" name="Page-1">
    <mxGraphModel dx="1235" dy="731" grid="1" gridSize="10" guides="1" tooltips="1" connect="1" arrows="1" fold="1" page="1" pageScale="1" pageWidth="850" pageHeight="1100" math="0" shadow="0">
      <root>
        <mxCell id="0" />
        <mxCell id="1" parent="0" />
        <mxCell id="YOJYTE3-wiDfbg3zjTLi-4" value="Account" style="swimlane;fontStyle=1;align=center;verticalAlign=top;childLayout=stackLayout;horizontal=1;startSize=26;horizontalStack=0;resizeParent=1;resizeParentMax=0;resizeLast=0;collapsible=1;marginBottom=0;whiteSpace=wrap;html=1;" vertex="1" parent="1">
          <mxGeometry x="280" y="240" width="160" height="410" as="geometry" />
        </mxCell>
        <mxCell id="YOJYTE3-wiDfbg3zjTLi-5" value="&lt;div&gt;- money: int = 0&lt;/div&gt;" style="text;strokeColor=none;fillColor=none;align=left;verticalAlign=top;spacingLeft=4;spacingRight=4;overflow=hidden;rotatable=0;points=[[0,0.5],[1,0.5]];portConstraint=eastwest;whiteSpace=wrap;html=1;" vertex="1" parent="YOJYTE3-wiDfbg3zjTLi-4">
          <mxGeometry y="26" width="160" height="54" as="geometry" />
        </mxCell>
        <mxCell id="YOJYTE3-wiDfbg3zjTLi-6" value="" style="line;strokeWidth=1;fillColor=none;align=left;verticalAlign=middle;spacingTop=-1;spacingLeft=3;spacingRight=3;rotatable=0;labelPosition=right;points=[];portConstraint=eastwest;strokeColor=inherit;" vertex="1" parent="YOJYTE3-wiDfbg3zjTLi-4">
          <mxGeometry y="80" width="160" height="8" as="geometry" />
        </mxCell>
        <mxCell id="YOJYTE3-wiDfbg3zjTLi-7" value="+ Account(int AccountNum, int password, Bank bank)&amp;nbsp;&lt;div&gt;&lt;br&gt;&lt;/div&gt;&lt;div&gt;+ Deposit (int amount): void&lt;br&gt;&lt;br&gt;+ Withdraw (int amount): void&lt;/div&gt;&lt;div&gt;&lt;br&gt;+ Transfer (int accountNumber, int amount): void&lt;/div&gt;&lt;div&gt;&lt;br&gt;&lt;/div&gt;&lt;div&gt;+ AreYou (int): bool&lt;/div&gt;&lt;div&gt;&lt;br&gt;&lt;br&gt;&lt;br&gt;+ AccountNum: int &amp;lt;&amp;lt;readonly, property&amp;gt;&amp;gt;&lt;/div&gt;&lt;div&gt;+ Password: int &amp;lt;&amp;lt;readonly, property&amp;gt;&amp;gt;&lt;br&gt;+ Money: int &amp;lt;&amp;lt;property&amp;gt;&amp;gt;&lt;/div&gt;&lt;div&gt;+ Bank: bank&lt;/div&gt;" style="text;strokeColor=none;fillColor=none;align=left;verticalAlign=top;spacingLeft=4;spacingRight=4;overflow=hidden;rotatable=0;points=[[0,0.5],[1,0.5]];portConstraint=eastwest;whiteSpace=wrap;html=1;" vertex="1" parent="YOJYTE3-wiDfbg3zjTLi-4">
          <mxGeometry y="88" width="160" height="322" as="geometry" />
        </mxCell>
        <mxCell id="YOJYTE3-wiDfbg3zjTLi-8" value="Bank" style="swimlane;fontStyle=1;align=center;verticalAlign=top;childLayout=stackLayout;horizontal=1;startSize=26;horizontalStack=0;resizeParent=1;resizeParentMax=0;resizeLast=0;collapsible=1;marginBottom=0;whiteSpace=wrap;html=1;" vertex="1" parent="1">
          <mxGeometry x="600" y="240" width="160" height="410" as="geometry" />
        </mxCell>
        <mxCell id="YOJYTE3-wiDfbg3zjTLi-9" value="- List [Account]: _accountList" style="text;strokeColor=none;fillColor=none;align=left;verticalAlign=top;spacingLeft=4;spacingRight=4;overflow=hidden;rotatable=0;points=[[0,0.5],[1,0.5]];portConstraint=eastwest;whiteSpace=wrap;html=1;" vertex="1" parent="YOJYTE3-wiDfbg3zjTLi-8">
          <mxGeometry y="26" width="160" height="54" as="geometry" />
        </mxCell>
        <mxCell id="YOJYTE3-wiDfbg3zjTLi-10" value="" style="line;strokeWidth=1;fillColor=none;align=left;verticalAlign=middle;spacingTop=-1;spacingLeft=3;spacingRight=3;rotatable=0;labelPosition=right;points=[];portConstraint=eastwest;strokeColor=inherit;" vertex="1" parent="YOJYTE3-wiDfbg3zjTLi-8">
          <mxGeometry y="80" width="160" height="8" as="geometry" />
        </mxCell>
        <mxCell id="YOJYTE3-wiDfbg3zjTLi-11" value="+ Bank (string name)&lt;div&gt;&lt;br&gt;&lt;/div&gt;&lt;div&gt;+ AddAccount (string accountNumber, int Password)&lt;/div&gt;&lt;div&gt;+ DeleteAccount(string accountNumber, int Password)&lt;/div&gt;&lt;div&gt;&lt;br&gt;&lt;/div&gt;&lt;div&gt;+ FindAccount (int AccountNum): Account&lt;/div&gt;&lt;div&gt;&lt;br&gt;&lt;/div&gt;&lt;div&gt;+ Description: string &amp;lt;&amp;lt;readonly, property&amp;gt;&amp;gt;&lt;/div&gt;" style="text;strokeColor=none;fillColor=none;align=left;verticalAlign=top;spacingLeft=4;spacingRight=4;overflow=hidden;rotatable=0;points=[[0,0.5],[1,0.5]];portConstraint=eastwest;whiteSpace=wrap;html=1;" vertex="1" parent="YOJYTE3-wiDfbg3zjTLi-8">
          <mxGeometry y="88" width="160" height="322" as="geometry" />
        </mxCell>
      </root>
    </mxGraphModel>
  </diagram>
</mxfile>
